<?xml version="1.0" encoding="utf-8" ?>
<svg baseProfile="full" fill="blue" height="100%" version="1.1" width="100%" xmlns="http://www.w3.org/2000/svg" xmlns:ev="http://www.w3.org/2001/xml-events" xmlns:xlink="http://www.w3.org/1999/xlink"><defs /><rect fill="#CBCBC8" height="100%" stroke="black" stroke-width="3" width="100%" x="0cm" y="0cm" /><image height="25cm" width="50cm" x="250cm" xlink:href="aa.jpeg" y="5cm" /><image height="100%" width="100%" x="0cm" xlink:href="d.jpg" y="0cm" /><text font-size="150" stroke="black" x="10cm" y="10cm">Date: 2019-01-11</text><text font-size="150" stroke="black" x="10cm" y="20cm">Time: 01:15:52</text><rect fill="#CBCBC8" height="60cm" stroke="black" stroke-width="3" width="55cm" x="40cm" y="100cm" /><g id="hline" stroke="#E621AF" stroke-width="5"><line x1="40cm" x2="95cm" y1="110cm" y2="110cm" /></g><ellipse cx="150cm" cy="122cm" fill="#CBCBC8" rx="30cm" ry="600" stroke="black" /><text font-size="200" stroke="black" x="45cm" y="107.5cm">Client</text><text font-size="200" stroke="black" x="140cm" y="119.5cm">Achete</text><g id="hline" stroke="#E621AF" stroke-width="5"><line x1="120cm" x2="180cm" y1="122cm" y2="122cm" /></g><rect fill="#CBCBC8" height="60cm" stroke="black" stroke-width="3" width="55cm" x="205cm" y="100cm" /><g id="hline" stroke="#E621AF" stroke-width="5"><line x1="205cm" x2="260cm" y1="110cm" y2="110cm" /></g><text font-size="200" stroke="black" x="210cm" y="107.5cm">Voiture</text><rect fill="#CBCBC8" height="60cm" stroke="black" stroke-width="3" width="55cm" x="122.5cm" y="30cm" /><g id="hline" stroke="#E621AF" stroke-width="5"><line x1="122.5cm" x2="177.5cm" y1="40cm" y2="40cm" /></g><text font-size="200" stroke="black" x="127.5cm" y="37.5cm">Vendeur</text><rect fill="#CBCBC8" height="60cm" stroke="black" stroke-width="3" width="55cm" x="122.5cm" y="167cm" /><g id="hline" stroke="#E621AF" stroke-width="5"><line x1="122.5cm" x2="177.5cm" y1="177cm" y2="177cm" /><line x1="120cm" x2="95cm" y1="122cm" y2="122cm" /><line x1="180cm" x2="205cm" y1="122cm" y2="122cm" /><line x1="150cm" x2="150cm" y1="105cm" y2="90cm" /><line x1="150cm" x2="150cm" y1="139cm" y2="167cm" /></g><text font-size="200" stroke="black" x="127.5cm" y="174.5cm">Vendeur</text><text font-size="200" stroke="black" text-decoration="underline" x="45cm" y="120cm">Id_client</text><text font-size="200" stroke="black" x="45cm" y="128cm">Nom</text><text font-size="200" stroke="black" x="45cm" y="136cm">prenom</text><text font-size="200" stroke="black" x="45cm" y="144cm">Adresse</text><text font-size="200" stroke="black" text-decoration="underline" x="210cm" y="120cm">Numero_matricule</text><text font-size="200" stroke="black" x="210cm" y="128cm">Marque</text><text font-size="200" stroke="black" x="210cm" y="136cm">Prix</text><text font-size="200" stroke="black" x="210cm" y="144cm">Couleur</text><text font-size="200" stroke="black" text-decoration="underline" x="127.5cm" y="50cm">Id_vendeur</text><text font-size="200" stroke="black" x="127.5cm" y="58cm">Nom</text><text font-size="200" stroke="black" x="127.5cm" y="66cm">Prenom</text><text font-size="200" stroke="black" x="127.5cm" y="74cm">Adresse</text><text font-size="200" stroke="black" text-decoration="underline" x="127.5cm" y="187cm">Id_tr</text><text font-size="200" stroke="black" x="127.5cm" y="195cm">nom</text><text font-size="200" stroke="black" x="127.5cm" y="203cm">prenom</text><text font-size="200" stroke="black" x="127.5cm" y="211cm">telephone</text><text font-size="200" stroke="black" x="140cm" y="129.5cm">date</text></svg>